<svg width="708" height="415" viewBox="0 0 708 415" fill="none" xmlns="http://www.w3.org/2000/svg" id="portSvg">
<g clip-path="url(#clip0)">
<path d="M630.042 154.976C614.717 154.976 599.735 150.431 586.993 141.917C574.25 133.402 564.318 121.3 558.453 107.141C552.588 92.9821 551.054 77.4019 554.044 62.3707C557.034 47.3396 564.414 33.5325 575.25 22.6957C586.087 11.8588 599.894 4.47883 614.925 1.48894C629.956 -1.50094 645.537 0.033574 659.696 5.89844C673.855 11.7633 685.957 21.6951 694.471 34.4379C702.986 47.1807 707.53 62.1622 707.53 77.4878C707.507 98.0318 699.336 117.728 684.809 132.254C670.282 146.781 650.586 154.952 630.042 154.976ZM630.042 1.21078C614.956 1.21078 600.209 5.68435 587.665 14.0658C575.122 22.4472 565.345 34.3601 559.572 48.2979C553.798 62.2357 552.288 77.5725 555.231 92.3688C558.174 107.165 565.439 120.756 576.106 131.424C586.774 142.091 600.365 149.356 615.162 152.299C629.958 155.242 645.295 153.732 659.232 147.959C673.17 142.185 685.083 132.409 693.464 119.865C701.846 107.321 706.319 92.574 706.319 77.4878C706.297 57.2649 698.253 37.8769 683.953 23.5771C669.653 9.27732 650.265 1.23366 630.042 1.21078Z" fill="#424242"/>
<path d="M630.302 116.619C651.791 116.619 669.211 99.1991 669.211 77.7102C669.211 56.2212 651.791 38.801 630.302 38.801C608.813 38.801 591.393 56.2212 591.393 77.7102C591.393 99.1991 608.813 116.619 630.302 116.619Z" fill="#F2F2F2"/>
<path d="M632.869 77.8005H38.8911V376.204H632.869V77.8005Z" fill="#424242"/>
<path opacity="0.1" d="M428.513 164.069H205.771V316.806H428.513V164.069Z" fill="black"/>
<path d="M683.557 38.7106C692.222 38.7106 699.246 31.6863 699.246 23.0214C699.246 14.3566 692.222 7.33228 683.557 7.33228C674.892 7.33228 667.868 14.3566 667.868 23.0214C667.868 31.6863 674.892 38.7106 683.557 38.7106Z" fill="url(#paint0_linear)"/>
<path d="M56.5692 96.1855C60.4745 96.1855 63.6404 93.0197 63.6404 89.1144C63.6404 85.2091 60.4745 82.0432 56.5692 82.0432C52.6639 82.0432 49.498 85.2091 49.498 89.1144C49.498 93.0197 52.6639 96.1855 56.5692 96.1855Z" fill="url(#paint1_linear)"/>
<path d="M78.4901 96.1855C82.3954 96.1855 85.5613 93.0197 85.5613 89.1144C85.5613 85.2091 82.3954 82.0432 78.4901 82.0432C74.5848 82.0432 71.4189 85.2091 71.4189 89.1144C71.4189 93.0197 74.5848 96.1855 78.4901 96.1855Z" fill="url(#paint2_linear)"/>
<path d="M100.411 96.1855C104.316 96.1855 107.482 93.0197 107.482 89.1144C107.482 85.2091 104.316 82.0432 100.411 82.0432C96.5052 82.0432 93.3394 85.2091 93.3394 89.1144C93.3394 93.0197 96.5052 96.1855 100.411 96.1855Z" fill="url(#paint3_linear)"/>
<path d="M121.624 188.818H107.482V202.96H121.624V188.818Z" fill="url(#paint4_linear)"/>
<path d="M552.259 311.856H538.116V325.999H552.259V311.856Z" fill="white"/>
<path d="M502.395 213.522L491.401 222.417L500.296 233.411L511.291 224.516L502.395 213.522Z" fill="url(#paint5_linear)"/>
<path d="M452.555 405.903H8.48535V166.897H9.8995V404.489H452.555V405.903Z" fill="#424242"/>
<path d="M461.04 414.388C459.222 414.388 457.445 413.849 455.933 412.839C454.421 411.829 453.243 410.393 452.547 408.714C451.852 407.034 451.67 405.185 452.024 403.402C452.379 401.619 453.255 399.981 454.54 398.696C455.826 397.41 457.464 396.535 459.247 396.18C461.03 395.825 462.878 396.007 464.558 396.703C466.238 397.399 467.673 398.577 468.683 400.089C469.694 401.6 470.233 403.378 470.233 405.196C470.23 407.633 469.26 409.969 467.537 411.693C465.814 413.416 463.477 414.385 461.04 414.388ZM461.04 397.417C459.502 397.417 457.998 397.874 456.719 398.728C455.44 399.583 454.443 400.798 453.854 402.219C453.265 403.64 453.111 405.204 453.411 406.713C453.711 408.222 454.452 409.608 455.54 410.696C456.628 411.784 458.014 412.524 459.523 412.825C461.032 413.125 462.596 412.971 464.017 412.382C465.438 411.793 466.653 410.796 467.508 409.517C468.362 408.238 468.818 406.734 468.818 405.196C468.816 403.133 467.996 401.156 466.538 399.698C465.079 398.24 463.102 397.42 461.04 397.417Z" fill="#424242"/>
<path d="M9.19253 167.604C7.37442 167.604 5.59714 167.065 4.08543 166.055C2.57373 165.045 1.3955 163.609 0.699743 161.93C0.00398307 160.25 -0.17806 158.402 0.176636 156.618C0.531331 154.835 1.40683 153.197 2.69243 151.912C3.97803 150.626 5.61598 149.751 7.39915 149.396C9.18233 149.041 11.0306 149.223 12.7104 149.919C14.3901 150.615 15.8257 151.793 16.8358 153.305C17.8459 154.816 18.3851 156.594 18.3851 158.412C18.3824 160.849 17.413 163.186 15.6896 164.909C13.9663 166.632 11.6297 167.602 9.19253 167.604ZM9.19253 150.633C7.65413 150.633 6.15027 151.09 4.87114 151.944C3.59201 152.799 2.59505 154.014 2.00633 155.435C1.41761 156.856 1.26357 158.42 1.5637 159.929C1.86383 161.438 2.60464 162.824 3.69245 163.912C4.78026 165 6.16622 165.74 7.67506 166.041C9.1839 166.341 10.7479 166.187 12.1691 165.598C13.5904 165.009 14.8052 164.012 15.6599 162.733C16.5146 161.454 16.9708 159.95 16.9708 158.412C16.9685 156.35 16.1482 154.372 14.69 152.914C13.2318 151.456 11.2547 150.636 9.19253 150.633Z" fill="#424242"/>
<path d="M142.13 358.526L135.816 376.204H121.624V358.172C122.671 335.552 135.363 324.917 135.759 324.591C126.22 333.791 127.281 365.597 127.281 365.597C133.645 338.019 139.302 337.312 139.302 337.312C135.879 342.453 134.112 365.837 134.006 367.294C134.43 362.38 142.13 358.526 142.13 358.526Z" fill="#F2F2F2"/>
<path d="M581.25 360.93V376.204H570.339L564.986 361.206C564.986 361.206 571.089 364.261 571.428 368.157C571.343 366.955 569.943 348.457 567.228 344.384C567.228 344.384 571.718 344.942 576.767 366.813C576.767 366.813 577.601 341.59 570.042 334.293C570.36 334.555 580.423 342.983 581.25 360.93Z" fill="#F2F2F2"/>
<path d="M390.293 316.803H373.094L372.979 315.393L371.726 299.671V299.665L370.425 283.32L378.361 249.607L385.105 256.351V288.478C385.105 288.478 389.07 294.429 388.277 296.015C387.484 297.601 386.691 297.601 387.484 298.787C388.277 299.98 389.07 300.773 388.277 301.566C387.891 302.081 387.683 302.708 387.683 303.352C387.683 303.996 387.891 304.622 388.277 305.138C389.07 305.931 390.656 307.117 389.464 308.31C388.277 309.496 386.691 308.703 388.277 313.068C388.568 313.875 388.933 314.653 389.367 315.393C389.65 315.879 389.959 316.35 390.293 316.803Z" fill="#D0CDE1"/>
<path d="M337.307 208.156L334.928 231.954L359.123 235.524L360.907 221.84L362.693 208.156H337.307Z" fill="#FFB9B9"/>
<path opacity="0.1" d="M337.307 208.156L334.928 231.954L359.123 235.524L360.907 221.84L362.693 208.156H337.307Z" fill="black"/>
<path d="M350.595 215.891C361.11 215.891 369.634 207.367 369.634 196.852C369.634 186.337 361.11 177.813 350.595 177.813C340.08 177.813 331.556 186.337 331.556 196.852C331.556 207.367 340.08 215.891 350.595 215.891Z" fill="#FFB9B9"/>
<path d="M302.484 316.803C302.417 316.664 302.344 316.518 302.272 316.361C302.133 316.064 301.981 315.743 301.818 315.392C300.764 313.043 299.475 309.702 300.22 308.703C301.412 307.117 301.806 305.531 301.013 304.738C300.22 303.945 297.84 305.531 300.22 303.545C302.599 301.566 303.392 302.752 302.599 300.373C301.806 297.994 300.22 299.187 301.806 297.994C303.392 296.807 304.584 297.201 303.791 296.014C302.998 294.822 301.412 294.822 302.998 294.029C304.584 293.236 305.777 294.029 305.377 292.043C304.978 290.064 304.584 290.857 305.377 290.064C305.583 289.858 306.304 287.86 307.266 285.009C309.96 276.951 314.5 262.089 314.5 261.502C314.5 260.709 308.156 235.725 308.156 235.725L305.377 234.133C305.377 234.133 293.082 242.463 289.117 261.109C285.146 279.748 282.373 284.512 282.373 284.512C282.373 284.512 278.408 285.305 281.181 288.078C283.959 290.857 283.959 290.457 281.58 292.043C279.201 293.629 277.615 290.457 279.201 293.629C280.787 296.807 282.767 296.014 281.181 297.994C279.595 299.98 276.822 299.98 278.408 301.566C279.994 303.152 276.822 306.723 278.802 308.31C280.787 309.896 281.58 310.289 281.58 313.068C281.581 313.846 281.644 314.624 281.768 315.392C281.836 315.868 281.933 316.339 282.058 316.803C282.149 317.172 282.24 317.451 282.301 317.626L302.484 316.803Z" fill="#D0CDE1"/>
<path d="M302.484 316.803H304.1L304.185 316.24L302.272 316.361L295.316 316.803L282.301 317.626L302.484 316.803Z" fill="#424242"/>
<path d="M310.929 299.98L307.363 287.685L307.266 285.009L305.377 234.133L328.781 225.809L332.746 222.631C332.746 222.631 333.539 213.508 334.732 212.715C335.162 212.431 335.852 212.764 336.766 213.538C338.37 214.9 340.671 217.619 343.455 220.652C347.82 225.41 356.943 224.617 359.716 223.031C360.073 222.823 360.443 222.639 360.824 222.48C362.815 221.656 363.681 222.238 363.681 222.238C365.667 223.824 360.908 228.981 360.908 228.981C360.908 228.981 362.494 232.547 372.804 236.119C383.12 239.691 385.105 256.35 385.105 256.35C385.105 256.35 372.804 289.664 373.204 292.043C373.543 294.083 372.138 298.454 371.726 299.665V299.671C371.66 299.865 371.617 299.98 371.617 299.98L372.519 315.393L372.604 316.803H312.606C312.427 316.312 312.202 315.84 311.934 315.393C311.867 315.284 311.794 315.169 311.722 315.053C308.156 309.496 310.929 299.98 310.929 299.98Z" fill="#D0CDE1"/>
<path d="M331.424 199.29C331.424 199.29 329.447 196.325 330.207 193.131C330.662 191.318 330.841 189.447 330.74 187.58C330.74 187.58 332.336 182.409 333.933 179.52C335.53 176.63 334.77 175.413 339.789 174.501C344.807 173.588 342.754 167.049 355.985 174.121C356.432 174.744 357.053 175.221 357.77 175.492C358.487 175.762 359.269 175.815 360.016 175.642C362.753 175.109 363.742 178.911 363.742 178.911C363.742 178.911 365.567 177.847 366.251 179.368C366.935 180.888 371.815 178.455 371.815 188.72C371.815 198.986 366.262 208.156 366.262 208.156C366.262 208.156 366.669 190.888 357.62 189.139C348.571 187.39 338.838 182.295 336.481 188.835C335.208 192.505 333.511 196.014 331.424 199.29Z" fill="#2F2E41"/>
<path d="M366.46 203.396C367.446 203.396 368.245 202.331 368.245 201.016C368.245 199.702 367.446 198.636 366.46 198.636C365.474 198.636 364.675 199.702 364.675 201.016C364.675 202.331 365.474 203.396 366.46 203.396Z" fill="#FFB9B9"/>
<path d="M205.77 152.753V316.803H465.989V152.753H205.77ZM464.579 315.393H207.186V154.17H464.579V315.393Z" fill="white"/>
</g>
<defs>
<linearGradient id="paint0_linear" x1="683.557" y1="7.33228" x2="683.557" y2="38.7106" gradientUnits="userSpaceOnUse">
<stop stop-color="#9F5EF3"/>
<stop offset="0.489583" stop-color="#D275B4"/>
<stop offset="1" stop-color="#FF8484"/>
</linearGradient>
<linearGradient id="paint1_linear" x1="56.5692" y1="82.0432" x2="56.5692" y2="96.1855" gradientUnits="userSpaceOnUse">
<stop stop-color="#9F5EF3"/>
<stop offset="0.489583" stop-color="#D275B4"/>
<stop offset="1" stop-color="#FF8484"/>
</linearGradient>
<linearGradient id="paint2_linear" x1="78.4901" y1="82.0432" x2="78.4901" y2="96.1855" gradientUnits="userSpaceOnUse">
<stop stop-color="#9F5EF3"/>
<stop offset="0.489583" stop-color="#D275B4"/>
<stop offset="1" stop-color="#FF8484"/>
</linearGradient>
<linearGradient id="paint3_linear" x1="100.411" y1="82.0432" x2="100.411" y2="96.1855" gradientUnits="userSpaceOnUse">
<stop stop-color="#9F5EF3"/>
<stop offset="0.489583" stop-color="#D275B4"/>
<stop offset="1" stop-color="#FF8484"/>
</linearGradient>
<linearGradient id="paint4_linear" x1="114.553" y1="188.818" x2="114.553" y2="202.96" gradientUnits="userSpaceOnUse">
<stop stop-color="#9F5EF3"/>
<stop offset="0.489583" stop-color="#D275B4"/>
<stop offset="1" stop-color="#FF8484"/>
</linearGradient>
<linearGradient id="paint5_linear" x1="496.898" y1="217.969" x2="505.794" y2="228.964" gradientUnits="userSpaceOnUse">
<stop stop-color="#9F5EF3"/>
<stop offset="0.489583" stop-color="#D275B4"/>
<stop offset="1" stop-color="#FF8484"/>
</linearGradient>
<clipPath id="clip0">
<rect width="707.53" height="414.388" fill="white"/>
</clipPath>
</defs>
</svg>
