		<svg width="677" height="356" viewBox="0 0 677 356" fill="none" xmlns="http://www.w3.org/2000/svg" id="webSvg">
			<g clip-path="url(#clip0)">
				<path d="M593.836 158.898L529.842 189.185L586.479 146.834C577.274 132.466 566.933 118.859 555.555 106.141L278.021 175.124L528.712 79.4938C517.257 69.3862 505.091 60.1132 492.309 51.7461L69.4123 119.864C24.5114 176.012 0.0345736 245.758 0 317.652H636.574C636.548 261.895 621.805 207.132 593.836 158.898Z" fill="#F2F2F2"/>
				<path d="M457.698 32.0819C414.279 10.905 366.595 -0.0683286 318.287 7.36933e-05C219.969 7.36933e-05 132.067 44.5817 73.6821 114.629C173.66 92.7226 347.73 54.8018 457.698 32.0819Z" fill="#F2F2F2"/>
				<path d="M636.578 316.374C636.578 326.257 544.723 356 431.414 356C318.106 356 226.251 326.257 226.251 316.374C226.251 306.49 318.106 320.208 431.414 320.208C544.723 320.208 636.578 306.49 636.578 316.374Z" fill="#424242"/>
				<path opacity="0.1" d="M636.578 316.374C636.578 326.257 544.723 356 431.414 356C318.106 356 226.251 326.257 226.251 316.374C226.251 306.49 318.106 320.208 431.414 320.208C544.723 320.208 636.578 306.49 636.578 316.374Z" fill="black"/>
				<path d="M431.414 334.269C544.723 334.269 636.578 326.257 636.578 316.373C636.578 306.49 544.723 298.478 431.414 298.478C318.106 298.478 226.251 306.49 226.251 316.373C226.251 326.257 318.106 334.269 431.414 334.269Z" fill="#424242"/>
				<path d="M374.306 170.731C374.306 170.731 382.557 183.818 379.61 187.362C376.663 190.906 401.72 190.994 401.72 190.994C401.72 190.994 397.957 171.955 399.064 167.574L374.306 170.731Z" fill="#FFB8B8"/>
				<path opacity="0.1" d="M374.306 170.731C374.306 170.731 382.557 183.818 379.61 187.362C376.663 190.906 401.72 190.994 401.72 190.994C401.72 190.994 397.957 171.955 399.064 167.574L374.306 170.731Z" fill="black"/>
				<path d="M387.493 175.474C401.783 175.474 413.368 163.889 413.368 149.599C413.368 135.308 401.783 123.723 387.493 123.723C373.202 123.723 361.618 135.308 361.618 149.599C361.618 163.889 373.202 175.474 387.493 175.474Z" fill="#F18095"/>
				<path d="M448.352 289.849V305.188L463.691 301.993L462.413 291.127L448.352 289.849Z" fill="#FFB8B8"/>
				<path d="M502.678 292.406L545.5 299.436L534.635 315.415C534.635 315.415 504.595 305.189 496.926 305.189C489.256 305.189 502.678 292.406 502.678 292.406Z" fill="#FFB8B8"/>
				<path d="M405.529 261.727C405.529 261.727 437.486 224.657 447.712 226.574C457.938 228.492 462.412 239.996 462.412 239.996L468.165 296.88C468.165 296.88 447.712 298.797 447.712 296.88C447.712 294.962 443.877 254.057 443.877 254.057C443.877 254.057 413.838 320.528 397.859 276.427L405.529 261.727Z" fill="#2F2E41"/>
				<path d="M353.759 286.653C353.759 286.653 354.398 318.61 373.572 320.528C392.746 322.445 413.838 307.745 413.838 307.745L448.351 291.21C448.351 291.21 489.256 312.858 501.4 307.106C501.4 307.106 514.183 293.684 505.874 289.849C497.565 286.014 505.235 289.849 505.235 289.849L456.021 264.284C456.021 264.284 446.434 261.727 429.816 268.758C413.199 275.788 390.829 278.984 390.829 278.984L353.759 286.653Z" fill="#2F2E41"/>
				<path d="M385.716 177.361C396.306 177.361 404.89 168.776 404.89 158.187C404.89 147.597 396.306 139.013 385.716 139.013C375.127 139.013 366.542 147.597 366.542 158.187C366.542 168.776 375.127 177.361 385.716 177.361Z" fill="#FFB8B8"/>
				<path d="M413.199 211.874L411.92 238.718C411.92 238.718 412.559 273.871 406.807 276.427C403.899 277.718 398.057 280.313 392.657 283.151C388.605 285.273 384.802 287.523 382.68 289.459C382.117 289.938 381.632 290.5 381.242 291.127C378.685 295.601 362.068 294.962 358.233 291.767C354.398 288.571 356.954 295.601 353.759 296.88C350.665 298.12 346.377 287.983 349.004 272.848C349.087 272.343 349.183 271.832 349.285 271.314C352.218 256.646 347.61 221.512 348.32 207.937C348.361 206.9 348.47 205.867 348.646 204.844C350.563 194.618 375.029 173.807 379.605 182.672C385.243 193.614 398.192 183.618 400.416 178.639C413.199 178 417.673 193.339 417.673 193.339L413.199 211.874Z" fill="#424242"/>
				<path d="M464.969 299.436C464.969 299.436 454.743 303.271 451.547 302.632C448.351 301.993 445.156 304.549 445.156 308.384C445.156 312.219 441.321 321.167 447.073 321.806C452.825 322.445 476.473 321.167 481.586 323.084C481.586 323.084 504.595 323.723 502.678 314.136C500.761 304.549 491.173 305.188 491.173 305.188C491.173 305.188 464.969 303.91 464.969 299.436Z" fill="#2F2E41"/>
				<path d="M539.748 301.354C539.748 301.354 541.027 297.519 542.944 297.519C544.861 297.519 560.201 300.076 562.118 299.436C564.036 298.797 586.405 297.519 582.571 308.384C578.736 319.25 565.953 320.528 565.953 320.528C565.953 320.528 542.944 317.971 539.748 318.611C536.553 319.25 525.048 318.611 526.966 315.415C528.883 312.219 541.027 306.467 539.748 301.354Z" fill="#2F2E41"/>
				<path d="M481.57 209.55L485.077 224.014C485.116 224.175 485.11 224.344 485.059 224.502L469.153 274.208C469.09 274.405 468.962 274.574 468.789 274.688C468.616 274.801 468.41 274.852 468.204 274.832C467.998 274.811 467.806 274.721 467.659 274.576C467.512 274.431 467.418 274.24 467.395 274.035L465.195 254.671C465.18 254.543 465.193 254.412 465.233 254.289L479.833 209.483C479.894 209.296 480.014 209.134 480.176 209.022C480.337 208.909 480.531 208.852 480.727 208.86C480.924 208.868 481.112 208.939 481.264 209.064C481.417 209.188 481.524 209.359 481.57 209.55Z" fill="#D0CDE1"/>
				<path d="M480.281 210.772L483.518 223.181L469.489 268.505L466.251 254.476L480.281 210.772Z" fill="#F2F2F2"/>
				<path d="M409.597 278.217C410.137 279.836 465.712 277.677 466.251 277.138C466.722 276.462 467.12 275.739 467.438 274.98C467.946 273.9 468.41 272.821 468.41 272.821L466.251 255.35L411.216 253.397C411.216 253.397 409.84 268.203 409.559 274.98C409.464 276.057 409.476 277.142 409.597 278.217Z" fill="#D0CDE1"/>
				<path opacity="0.1" d="M459.238 257.713L460.316 272.821H436.036V257.713H459.238Z" fill="black"/>
				<path opacity="0.1" d="M427.943 262.57L428.088 262.541L427.403 269.045H413.914V262.57H427.943Z" fill="black"/>
				<path opacity="0.1" d="M409.597 278.217C410.137 279.836 465.712 277.677 466.251 277.138C466.722 276.462 467.12 275.739 467.438 274.979H409.559C409.464 276.057 409.476 277.142 409.597 278.217Z" fill="black"/>
				<path d="M400.999 103.54C399.044 106.333 396.146 108.325 392.838 109.151C387.131 110.679 392.791 119.255 392.791 119.255C392.791 119.255 390.733 116.136 393.702 112.834C396.671 109.531 401.448 107.273 400.999 103.54Z" fill="#F18095"/>
				<path d="M391.78 128.523C395.763 128.523 398.991 125.295 398.991 121.312C398.991 117.329 395.763 114.101 391.78 114.101C387.797 114.101 384.569 117.329 384.569 121.312C384.569 125.295 387.797 128.523 391.78 128.523Z" fill="#F18095"/>
				<path d="M400.987 127.356C395.108 125.133 385.32 124.005 380.284 124.776L380.974 119.733C385.816 122.235 395.559 123.411 401.677 122.313L400.987 127.356Z" fill="#424242"/>
				<path d="M389.612 129.161C389.612 129.161 382.244 141.416 365.112 146.004C347.98 150.591 364.972 176.336 364.972 176.336C364.972 176.336 358.793 166.974 367.705 157.06C376.618 147.146 390.96 140.367 389.612 129.161Z" fill="#F18095"/>
				<path d="M390.196 128.417C390.196 128.417 397.274 145.249 405.044 146.84C412.815 148.432 412.225 175.028 400.074 179.017C400.074 179.017 408.934 163.425 401.361 152.968C393.787 142.511 389.003 134.244 390.196 128.417Z" fill="#F18095"/>
				<path opacity="0.1" d="M392.657 283.151C391.078 286.136 389.225 289.236 388.912 290.488C388.701 291.338 386.361 290.846 382.68 289.459C375.298 286.666 362.502 280.269 350.563 273.871C350.013 273.579 349.491 273.236 349.004 272.848C349.087 272.343 349.183 271.832 349.285 271.314C352.219 256.646 347.611 221.513 348.32 207.937L353.759 206.122L364.624 216.348V259.81C364.624 259.81 392.746 275.149 394.664 276.427C395.642 277.079 394.293 280.051 392.657 283.151Z" fill="black"/>
				<path d="M416.395 248.305L433.651 257.253C433.651 257.253 443.877 246.388 450.269 254.697C456.66 263.005 431.734 265.562 431.734 265.562C431.734 265.562 410.003 260.449 409.364 253.418C408.725 246.388 416.395 248.305 416.395 248.305Z" fill="#FFB8B8"/>
				<path d="M387.633 271.953L397.86 274.51C397.86 274.51 409.364 260.449 421.508 265.562C433.651 270.675 406.168 280.901 406.168 280.901C406.168 280.901 391.468 288.571 385.716 282.179C379.964 275.788 387.633 271.953 387.633 271.953Z" fill="#FFB8B8"/>
				<path d="M410.003 187.587C410.642 188.226 417.673 193.339 417.673 193.339C417.673 193.339 419.59 217.627 417.034 222.74C414.477 227.853 412.56 227.853 414.477 230.409C416.394 232.966 418.951 231.049 416.394 235.523C413.838 239.996 411.281 239.357 413.199 241.275C415.116 243.192 414.477 243.831 414.477 243.831L422.147 250.223C422.147 250.223 417.441 257.717 411.485 257.166C405.529 256.614 400.416 227.853 400.416 227.853L410.003 187.587Z" fill="#424242"/>
				<path d="M353.759 202.926L348.006 204.844C348.006 204.844 332.667 261.088 350.563 270.675C368.459 280.262 388.272 289.849 388.911 287.293C389.55 284.736 396.581 274.51 394.663 273.231C392.746 271.953 364.624 256.614 364.624 256.614V213.152L353.759 202.926Z" fill="#424242"/>
				<path opacity="0.1" d="M362.388 226.255L361.109 256.934L394.984 272.912L363.666 256.934L362.388 226.255Z" fill="black"/>
				<path d="M647.507 295.054C634.625 302.649 629.555 317.918 629.555 317.918C629.555 317.918 645.37 320.872 658.252 313.276C671.134 305.68 676.204 290.411 676.204 290.411C676.204 290.411 660.389 287.458 647.507 295.054Z" fill="#424242"/>
				<path d="M652.021 299.763C644.807 312.863 629.694 318.38 629.694 318.38C629.694 318.38 626.277 302.658 633.491 289.559C640.704 276.459 655.818 270.942 655.818 270.942C655.818 270.942 659.235 286.663 652.021 299.763Z" fill="url(#paint0_linear)"/>
				<path d="M14.057 148.28C15.469 148.28 16.6136 147.135 16.6136 145.724C16.6136 144.312 15.469 143.167 14.057 143.167C12.6451 143.167 11.5005 144.312 11.5005 145.724C11.5005 147.135 12.6451 148.28 14.057 148.28Z" fill="url(#paint1_linear)"/>
				<path d="M21.0873 148.28C22.4993 148.28 23.6439 147.135 23.6439 145.724C23.6439 144.312 22.4993 143.167 21.0873 143.167C19.6754 143.167 18.5308 144.312 18.5308 145.724C18.5308 147.135 19.6754 148.28 21.0873 148.28Z" fill="url(#paint2_linear)"/>
				<path d="M28.1181 148.28C29.53 148.28 30.6746 147.135 30.6746 145.724C30.6746 144.312 29.53 143.167 28.1181 143.167C26.7061 143.167 25.5615 144.312 25.5615 145.724C25.5615 147.135 26.7061 148.28 28.1181 148.28Z" fill="url(#paint3_linear)"/>
				<path opacity="0.3" d="M87.5578 242.152H50.4878V245.987H87.5578V242.152Z" fill="url(#paint4_linear)"/>
				<path opacity="0.3" d="M85.554 250.461H50.4878V254.296H85.554V250.461Z" fill="url(#paint5_linear)"/>
				<path opacity="0.3" d="M76.036 258.77H50.4878V262.604H76.036V258.77Z" fill="url(#paint6_linear)"/>
			<g opacity="0.3">
				<path opacity="0.3" d="M173.842 242.152H136.771V245.987H173.842V242.152Z" fill="url(#paint7_linear)"/>
				<path opacity="0.3" d="M171.838 250.461H136.771V254.296H171.838V250.461Z" fill="url(#paint8_linear)"/>
				<path opacity="0.3" d="M162.32 258.77H136.771V262.604H162.32V258.77Z" fill="url(#paint9_linear)"/>
				<path opacity="0.3" d="M173.842 242.152H136.771V245.987H173.842V242.152Z" fill="url(#paint10_linear)"/>
				<path opacity="0.3" d="M171.838 250.461H136.771V254.296H171.838V250.461Z" fill="url(#paint11_linear)"/>
				<path opacity="0.3" d="M162.32 258.77H136.771V262.604H162.32V258.77Z" fill="url(#paint12_linear)"/>
			</g>
				<path opacity="0.3" d="M263.321 242.152H226.251V245.987H263.321V242.152Z" fill="url(#paint13_linear)"/>
				<path opacity="0.3" d="M261.317 250.461H226.251V254.296H261.317V250.461Z" fill="url(#paint14_linear)"/>
				<path opacity="0.3" d="M251.799 258.77H226.251V262.604H251.799V258.77Z" fill="url(#paint15_linear)"/>
				<path opacity="0.3" d="M92.6712 192.299H45.375V234.482H92.6712V192.299Z" fill="url(#paint16_linear)"/>
				<path d="M178.954 192.299H131.658V234.482H178.954V192.299Z" fill="#424242"/>
				<path d="M268.434 192.299H221.138V234.482H268.434V192.299Z" fill="#424242"/>
				<path d="M149.144 234.305L148.521 234.293C148.534 233.602 148.924 217.316 155.335 212.815L155.693 213.326C149.541 217.645 149.148 234.139 149.144 234.305Z" fill="url(#paint17_linear)"/>
				<path d="M158.634 212.609C160.357 212.609 161.754 211.213 161.754 209.489C161.754 207.766 160.357 206.37 158.634 206.37C156.911 206.37 155.514 207.766 155.514 209.489C155.514 211.213 156.911 212.609 158.634 212.609Z" fill="url(#paint18_linear)"/>
				<path d="M158.003 220.505C156.38 221.015 154.652 221.09 152.991 220.722C154.046 219.379 155.466 218.37 157.081 217.816C158.695 217.262 160.436 217.187 162.092 217.6C161.007 218.91 159.597 219.912 158.003 220.505Z" fill="url(#paint19_linear)"/>
				<path d="M238.624 234.305L238 234.293C238.013 233.602 238.403 217.316 244.815 212.815L245.173 213.326C239.02 217.645 238.627 234.139 238.624 234.305Z" fill="url(#paint20_linear)"/>
				<path d="M248.113 212.609C249.837 212.609 251.233 211.213 251.233 209.489C251.233 207.766 249.837 206.37 248.113 206.37C246.39 206.37 244.994 207.766 244.994 209.489C244.994 211.213 246.39 212.609 248.113 212.609Z" fill="url(#paint21_linear)"/>
				<path d="M247.482 220.505C245.86 221.015 244.131 221.09 242.471 220.722C243.525 219.379 244.945 218.37 246.56 217.816C248.175 217.262 249.915 217.187 251.572 217.6C250.487 218.91 249.077 219.912 247.482 220.505Z" fill="url(#paint22_linear)"/>
				<path d="M309.978 315.734H3.83057V138.693H309.978V315.734ZM5.10884 314.456H308.699V139.971H5.10884V314.456Z" fill="#2F2E41"/>
				<path d="M309.339 151.517H4.46973V152.796H309.339V151.517Z" fill="#2F2E41"/>
			</g>
			<defs>
				<linearGradient id="paint0_linear" x1="642.756" y1="270.942" x2="642.756" y2="318.38" gradientUnits="userSpaceOnUse">
					<stop stop-color="#9F5EF3"/>
					<stop offset="0.515625" stop-color="#C36FC6"/>
					<stop offset="1" stop-color="#FB8389"/>
				</linearGradient>
				<linearGradient id="paint1_linear" x1="14.057" y1="143.167" x2="14.057" y2="148.28" gradientUnits="userSpaceOnUse">
					<stop stop-color="#9F5EF3"/>
					<stop offset="0.515625" stop-color="#C36FC6"/>
					<stop offset="1" stop-color="#FB8389"/>
				</linearGradient>
				<linearGradient id="paint2_linear" x1="21.0873" y1="143.167" x2="21.0873" y2="148.28" gradientUnits="userSpaceOnUse">
					<stop stop-color="#9F5EF3"/>
					<stop offset="0.515625" stop-color="#C36FC6"/>
					<stop offset="1" stop-color="#FB8389"/>
				</linearGradient>
				<linearGradient id="paint3_linear" x1="28.1181" y1="143.167" x2="28.1181" y2="148.28" gradientUnits="userSpaceOnUse">
					<stop stop-color="#9F5EF3"/>
					<stop offset="0.515625" stop-color="#C36FC6"/>
					<stop offset="1" stop-color="#FB8389"/>
				</linearGradient>
				<linearGradient id="paint4_linear" x1="69.0228" y1="242.152" x2="69.0228" y2="245.987" gradientUnits="userSpaceOnUse">
					<stop stop-color="#9F5EF3"/>
					<stop offset="0.515625" stop-color="#C36FC6"/>
					<stop offset="1" stop-color="#FB8389"/>
				</linearGradient>
				<linearGradient id="paint5_linear" x1="68.0209" y1="250.461" x2="68.0209" y2="254.296" gradientUnits="userSpaceOnUse">
					<stop stop-color="#9F5EF3"/>
					<stop offset="0.515625" stop-color="#C36FC6"/>
					<stop offset="1" stop-color="#FB8389"/>
				</linearGradient>
				<linearGradient id="paint6_linear" x1="63.2619" y1="258.77" x2="63.2619" y2="262.604" gradientUnits="userSpaceOnUse">
					<stop stop-color="#9F5EF3"/>
					<stop offset="0.515625" stop-color="#C36FC6"/>
					<stop offset="1" stop-color="#FB8389"/>
				</linearGradient>
				<linearGradient id="paint7_linear" x1="155.306" y1="242.152" x2="155.306" y2="245.987" gradientUnits="userSpaceOnUse">
					<stop stop-color="#9F5EF3"/>
					<stop offset="0.515625" stop-color="#C36FC6"/>
					<stop offset="1" stop-color="#FB8389"/>
				</linearGradient>
				<linearGradient id="paint8_linear" x1="154.305" y1="250.461" x2="154.305" y2="254.296" gradientUnits="userSpaceOnUse">
					<stop stop-color="#9F5EF3"/>
					<stop offset="0.515625" stop-color="#C36FC6"/>
					<stop offset="1" stop-color="#FB8389"/>
				</linearGradient>
				<linearGradient id="paint9_linear" x1="149.546" y1="258.77" x2="149.546" y2="262.604" gradientUnits="userSpaceOnUse">
					<stop stop-color="#9F5EF3"/>
					<stop offset="0.515625" stop-color="#C36FC6"/>
					<stop offset="1" stop-color="#FB8389"/>
				</linearGradient>
				<linearGradient id="paint10_linear" x1="155.306" y1="242.152" x2="155.306" y2="245.987" gradientUnits="userSpaceOnUse">
					<stop stop-color="#9F5EF3"/>
					<stop offset="0.515625" stop-color="#C36FC6"/>
					<stop offset="1" stop-color="#FB8389"/>
				</linearGradient>
				<linearGradient id="paint11_linear" x1="154.305" y1="250.461" x2="154.305" y2="254.296" gradientUnits="userSpaceOnUse">
					<stop stop-color="#9F5EF3"/>
					<stop offset="0.515625" stop-color="#C36FC6"/>
					<stop offset="1" stop-color="#FB8389"/>
				</linearGradient>
				<linearGradient id="paint12_linear" x1="149.546" y1="258.77" x2="149.546" y2="262.604" gradientUnits="userSpaceOnUse">
					<stop stop-color="#9F5EF3"/>
					<stop offset="0.515625" stop-color="#C36FC6"/>
					<stop offset="1" stop-color="#FB8389"/>
				</linearGradient>
				<linearGradient id="paint13_linear" x1="244.786" y1="242.152" x2="244.786" y2="245.987" gradientUnits="userSpaceOnUse">
					<stop stop-color="#9F5EF3"/>
					<stop offset="0.515625" stop-color="#C36FC6"/>
					<stop offset="1" stop-color="#FB8389"/>
				</linearGradient>
				<linearGradient id="paint14_linear" x1="243.784" y1="250.461" x2="243.784" y2="254.296" gradientUnits="userSpaceOnUse">
					<stop stop-color="#9F5EF3"/>
					<stop offset="0.515625" stop-color="#C36FC6"/>
					<stop offset="1" stop-color="#FB8389"/>
				</linearGradient>
				<linearGradient id="paint15_linear" x1="239.025" y1="258.77" x2="239.025" y2="262.604" gradientUnits="userSpaceOnUse">
					<stop stop-color="#9F5EF3"/>
					<stop offset="0.515625" stop-color="#C36FC6"/>
					<stop offset="1" stop-color="#FB8389"/>
				</linearGradient>
				<linearGradient id="paint16_linear" x1="69.0231" y1="192.299" x2="69.0231" y2="234.482" gradientUnits="userSpaceOnUse">
					<stop stop-color="#9F5EF3"/>
					<stop offset="0.515625" stop-color="#C36FC6"/>
					<stop offset="1" stop-color="#FB8389"/>
				</linearGradient>
				<linearGradient id="paint17_linear" x1="152.107" y1="212.815" x2="152.107" y2="234.305" gradientUnits="userSpaceOnUse">
					<stop stop-color="#9F5EF3"/>
					<stop offset="0.515625" stop-color="#C36FC6"/>
					<stop offset="1" stop-color="#FB8389"/>
				</linearGradient>
				<linearGradient id="paint18_linear" x1="158.634" y1="206.37" x2="158.634" y2="212.609" gradientUnits="userSpaceOnUse">
					<stop stop-color="#9F5EF3"/>
					<stop offset="0.515625" stop-color="#C36FC6"/>
					<stop offset="1" stop-color="#FB8389"/>
				</linearGradient>
				<linearGradient id="paint19_linear" x1="157.542" y1="217.337" x2="157.542" y2="220.952" gradientUnits="userSpaceOnUse">
					<stop stop-color="#9F5EF3"/>
					<stop offset="0.515625" stop-color="#C36FC6"/>
					<stop offset="1" stop-color="#FB8389"/>
				</linearGradient>
				<linearGradient id="paint20_linear" x1="241.586" y1="212.815" x2="241.586" y2="234.305" gradientUnits="userSpaceOnUse">
					<stop stop-color="#9F5EF3"/>
					<stop offset="0.515625" stop-color="#C36FC6"/>
					<stop offset="1" stop-color="#FB8389"/>
				</linearGradient>
				<linearGradient id="paint21_linear" x1="248.113" y1="206.37" x2="248.113" y2="212.609" gradientUnits="userSpaceOnUse">
					<stop stop-color="#9F5EF3"/>
					<stop offset="0.515625" stop-color="#C36FC6"/>
					<stop offset="1" stop-color="#FB8389"/>
				</linearGradient>
				<linearGradient id="paint22_linear" x1="247.021" y1="217.337" x2="247.021" y2="220.952" gradientUnits="userSpaceOnUse">
					<stop stop-color="#9F5EF3"/>
					<stop offset="0.515625" stop-color="#C36FC6"/>
					<stop offset="1" stop-color="#FB8389"/>
				</linearGradient>
				<clipPath id="clip0">
					<rect width="676.204" height="356" fill="white"/>
				</clipPath>
			</defs>
		</svg>
