<svg width="677" height="356" viewBox="0 0 677 356" fill="none" xmlns="http://www.w3.org/2000/svg">
	<g clip-path="url(#clip0)">
		<path d="M675.441 0.705078H284.612V236.384H675.441V0.705078Z" fill="white"/>
		<path d="M676.2 237.089H283.852V0H676.2V237.089ZM285.371 235.679H674.681V1.41005H285.371V235.679Z" fill="#E4E4E4"/>
		<path d="M455.464 23.7556C466.944 23.9376 466.942 39.7866 455.464 39.967C443.984 39.785 443.986 23.936 455.464 23.7556Z" fill="#424242"/>
		<path d="M480.026 23.7556C491.506 23.9376 491.504 39.7866 480.026 39.967C468.546 39.785 468.548 23.936 480.026 23.7556Z" fill="url(#paint0_linear)"/>
		<path d="M504.588 23.7556C516.067 23.9376 516.065 39.7866 504.587 39.967C493.108 39.785 493.11 23.936 504.588 23.7556Z" fill="#CACACA"/>
		<path d="M430.284 85.8203H352.118V86.6997H430.284V85.8203Z" fill="#CACACA"/>
		<path d="M608.407 213.333H500.87V120.117H608.407V213.333ZM501.818 212.453H607.46V120.996H501.818L501.818 212.453Z" fill="#CACACA"/>
		<path d="M501.667 120.235L501.021 120.878L607.61 213.215L608.257 212.572L501.667 120.235Z" fill="#CACACA"/>
		<path d="M607.612 120.237L501.018 212.569L501.665 213.212L608.259 120.88L607.612 120.237Z" fill="#CACACA"/>
		<path d="M608.407 73.5086H351.645V57.2397H608.407V73.5086ZM352.592 72.6292H607.46V58.1192H352.592V72.6292Z" fill="#CACACA"/>
		<path d="M446.614 145.421H352.404V129.152H446.614V145.421ZM353.352 144.542H445.667V130.032H353.352V144.542Z" fill="#CACACA"/>
		<path d="M446.614 172.917H352.404V156.648H446.614V172.917ZM353.352 172.037H445.667V157.527H353.352V172.037Z" fill="#CACACA"/>
		<path d="M446.614 200.413H352.404V184.144H446.614V200.413ZM353.352 199.534H445.667V185.023H353.352V199.534Z" fill="#CACACA"/>
		<path d="M377.077 105.979H351.809C353.759 98.6932 353.524 90.8115 351.809 82.5264H377.077C375.327 86.2225 374.424 90.2156 374.424 94.2527C374.424 98.2898 375.327 102.283 377.077 105.979Z" fill="url(#paint1_linear)"/>
		<path d="M370.951 87.5012H355.637V90.344H370.951V87.5012Z" fill="white"/>
		<path d="M370.951 93.1868H355.637V96.0295H370.951V93.1868Z" fill="white"/>
		<path d="M370.951 98.8723H355.637V101.715H370.951V98.8723Z" fill="white"/>
		<path d="M567.36 141.398H542.092C544.042 134.112 543.807 126.23 542.092 117.945H567.36C565.61 121.641 564.707 125.634 564.707 129.671C564.707 133.708 565.61 137.701 567.36 141.398Z" fill="url(#paint2_linear)"/>
		<path d="M561.234 122.92H545.92V125.762H561.234V122.92Z" fill="white"/>
		<path d="M561.234 128.605H545.92V131.448H561.234V128.605Z" fill="white"/>
		<path d="M561.234 134.291H545.92V137.133H561.234V134.291Z" fill="white"/>
		<path d="M599.847 91.1416H574.579C576.529 83.8558 576.294 75.9741 574.579 67.689H599.847C598.097 71.3851 597.194 75.3782 597.194 79.4153C597.194 83.4524 598.097 87.4455 599.847 91.1416Z" fill="url(#paint3_linear)"/>
		<path d="M593.721 72.6638H578.407V75.5066H593.721V72.6638Z" fill="white"/>
		<path d="M593.721 78.3494H578.407V81.1921H593.721V78.3494Z" fill="white"/>
		<path d="M593.721 84.0347H578.407V86.8774H593.721V84.0347Z" fill="white"/>
		<path d="M156.931 108.184H113.634V86.6813C113.634 81.3523 115.915 76.2415 119.974 72.4733C124.034 68.7051 129.541 66.5881 135.282 66.5881C141.024 66.5881 146.53 68.7051 150.59 72.4733C154.65 76.2415 156.931 81.3523 156.931 86.6813V108.184Z" fill="#2F2E41"/>
		<path d="M176.258 347.429H185.57L190 314.09L176.256 314.091L176.258 347.429Z" fill="#FFB6B6"/>
		<path d="M173.882 344.608L192.221 344.607H192.222C195.322 344.607 198.294 345.75 200.486 347.784C202.678 349.819 203.909 352.578 203.91 355.455V355.807L173.882 355.808L173.882 344.608Z" fill="#2F2E41"/>
		<path d="M64.937 335.895L73.0464 340.144L94.5641 313.134L82.5952 306.863L64.937 335.895Z" fill="#FFB6B6"/>
		<path d="M64.3634 332.354L80.334 340.722L80.3346 340.722C83.0337 342.136 85.0168 344.488 85.8479 347.26C86.679 350.031 86.2899 352.996 84.7662 355.501L84.5794 355.808L58.4312 342.107L64.3634 332.354Z" fill="#2F2E41"/>
		<path d="M124.453 197.491L123.735 200.826C123.735 200.826 121.579 202.827 122.657 203.828C123.735 204.829 123.375 209.498 123.375 209.498C122.772 218.011 110.787 265.854 108.643 275.198C108.643 275.198 92.1145 285.203 79.1791 304.88C66.2436 324.557 65.8843 329.56 65.8843 329.56L80.257 335.229L116.189 294.875C116.189 294.875 126.25 289.205 129.843 284.203C133.436 279.2 155.714 227.507 155.714 227.507L168.29 281.535C168.29 281.535 167.572 301.212 170.805 313.885C172.794 321.883 173.997 330.031 174.399 338.231L191.287 336.563C191.287 336.563 190.209 289.205 188.412 284.203C188.412 284.203 195.958 226.506 180.866 203.494L168.704 173.399L156.792 169.143L124.453 197.491Z" fill="#2F2E41"/>
		<path d="M135.06 71.8445C157.732 72.2039 157.728 103.505 135.059 103.861C112.388 103.502 112.392 72.2008 135.06 71.8445Z" fill="#FFB8B8"/>
		<path d="M152.507 87.0222H148.654L147.605 84.5873L148.13 87.0222H127.055L127.741 81.9273L122.618 87.0222H117.508V84.2614C117.504 82.1258 117.954 80.0105 118.831 78.0364C119.709 76.0623 120.997 74.2682 122.622 72.7567C124.248 71.2453 126.178 70.0462 128.303 69.228C130.429 68.4099 132.707 67.9888 135.008 67.9888C137.309 67.9888 139.587 68.4099 141.712 69.228C143.837 70.0462 145.768 71.2453 147.393 72.7567C149.019 74.2682 150.307 76.0623 151.185 78.0364C152.062 80.0105 152.512 82.1258 152.507 84.2614V87.0222Z" fill="#2F2E41"/>
		<path d="M158.437 113.212L115.593 113.534L124.648 198.78C124.648 198.78 174.75 196.326 174.781 182.132L170.087 169.518L158.437 113.212Z" fill="#E4E4E4"/>
		<path d="M238.172 261.958L88.8204 290.665C87.2931 290.954 85.5317 288.844 84.8827 285.944L69.1847 215.585C68.5378 212.686 69.2531 210.1 70.7785 209.801L220.13 181.094C221.658 180.805 223.419 182.916 224.068 185.815L239.766 256.173C240.411 259.073 239.696 261.661 238.172 261.958Z" fill="white"/>
		<path d="M125.025 240.805C132.391 240.805 138.362 235.262 138.362 228.426C138.362 221.589 132.391 216.047 125.025 216.047C117.659 216.047 111.688 221.589 111.688 228.426C111.688 235.262 117.659 240.805 125.025 240.805Z" fill="#F0F0F0"/>
		<path d="M174.314 257.908L110.246 270.222C110.166 270.239 110.085 270.248 110.003 270.25L129.437 215.711C129.554 215.372 129.766 215.068 130.051 214.83C130.336 214.592 130.684 214.428 131.06 214.356C131.436 214.284 131.825 214.306 132.189 214.419C132.552 214.532 132.877 214.733 133.13 215.001L160.759 243.784L162.083 245.161L174.314 257.908Z" fill="#E4E4E4"/>
		<path d="M209.985 251.052L154.571 261.703L162.079 245.164L162.619 243.972L172.402 222.417C172.585 222.081 172.843 221.784 173.157 221.546C173.472 221.308 173.837 221.135 174.229 221.036C174.621 220.938 175.031 220.918 175.432 220.976C175.832 221.035 176.216 221.171 176.556 221.376C176.645 221.435 176.73 221.5 176.81 221.57L209.985 251.052Z" fill="#E4E4E4"/>
		<path d="M238.172 261.958L88.8204 290.665C87.2931 290.954 85.5317 288.844 84.8827 285.944L69.1847 215.585C68.5378 212.686 69.2531 210.1 70.7785 209.801L220.13 181.094C221.658 180.805 223.419 182.916 224.068 185.815L239.766 256.173C240.411 259.073 239.696 261.661 238.172 261.958ZM71.2473 211.902C70.331 212.078 69.9039 213.633 70.2907 215.373L85.9886 285.731C86.3767 287.47 87.4348 288.738 88.3515 288.563L237.703 259.856C238.62 259.68 239.047 258.126 238.66 256.386L222.962 186.028C222.574 184.288 221.516 183.021 220.599 183.195L71.2473 211.902Z" fill="#CACACA"/>
		<path d="M193.985 196.835C193.042 196.424 192.208 195.827 191.541 195.085C190.874 194.342 190.391 193.473 190.125 192.539C189.859 191.605 189.817 190.627 190.002 189.676C190.186 188.725 190.594 187.823 191.195 187.034L182.519 174.252L189.601 167.464L201.581 185.674C202.942 186.699 203.851 188.152 204.136 189.758C204.42 191.364 204.06 193.01 203.124 194.386C202.188 195.762 200.74 196.771 199.056 197.222C197.371 197.673 195.567 197.536 193.985 196.835Z" fill="#FFB6B6"/>
		<path d="M151.854 116.569L158.07 112.767C158.07 112.767 162.866 113.765 167.968 122.873C173.07 131.981 193.643 172.698 193.643 172.698L185.187 180.667L162.627 148.723L151.854 116.569Z" fill="#E4E4E4"/>
		<path d="M113.759 207.021C114.417 206.272 114.891 205.398 115.146 204.461C115.401 203.524 115.432 202.547 115.236 201.598C115.04 200.648 114.622 199.751 114.012 198.967C113.402 198.184 112.614 197.535 111.704 197.065L113.566 182.057L104.016 178.782L101.707 200.011C100.958 201.482 100.816 203.157 101.308 204.719C101.8 206.28 102.893 207.62 104.378 208.484C105.864 209.348 107.639 209.677 109.368 209.407C111.097 209.137 112.659 208.288 113.759 207.021H113.759Z" fill="#FFB6B6"/>
		<path d="M121.229 120.875L115.592 113.562C115.592 113.562 111.735 112.767 107.177 117.702C102.62 122.637 99.9609 184.327 99.9609 184.327L116.672 187.852L126.547 144.141L121.229 120.875Z" fill="#E4E4E4"/>
		<path d="M290.164 356H0.759592C0.558136 356 0.36493 355.926 0.222479 355.793C0.0800276 355.661 0 355.482 0 355.295C0 355.108 0.0800276 354.929 0.222479 354.796C0.36493 354.664 0.558136 354.59 0.759592 354.59H290.164C290.366 354.59 290.559 354.664 290.701 354.796C290.844 354.929 290.924 355.108 290.924 355.295C290.924 355.482 290.844 355.661 290.701 355.793C290.559 355.926 290.366 356 290.164 356Z" fill="#CACACA"/>
		<path d="M103.953 228.427L79.2362 233.298C79.5139 225.795 77.52 218.131 73.9883 210.357L98.7052 205.486C97.821 209.439 97.8309 213.519 98.7343 217.468C99.6376 221.417 101.415 225.149 103.953 228.427Z" fill="url(#paint4_linear)"/>
		<path d="M93.8266 211.533L78.8467 214.485L79.4828 217.266L94.4627 214.314L93.8266 211.533Z" fill="white"/>
		<path d="M95.0991 217.095L80.1191 220.047L80.7553 222.828L95.7352 219.876L95.0991 217.095Z" fill="white"/>
		<path d="M96.3711 222.656L81.3911 225.608L82.0272 228.389L97.0072 225.437L96.3711 222.656Z" fill="white"/>
	</g>
		<defs>
	<linearGradient id="paint0_linear" x1="480.026" y1="23.7556" x2="480.026" y2="39.967" gradientUnits="userSpaceOnUse">
		<stop stop-color="#9F5EF3"/>
		<stop offset="0.515625" stop-color="#C36FC6"/>
		<stop offset="1" stop-color="#FB8389"/>
	</linearGradient>
	<linearGradient id="paint1_linear" x1="364.443" y1="82.5264" x2="364.443" y2="105.979" gradientUnits="userSpaceOnUse">
		<stop stop-color="#9F5EF3"/>
		<stop offset="0.515625" stop-color="#C36FC6"/>
		<stop offset="1" stop-color="#FB8389"/>
	</linearGradient>
	<linearGradient id="paint2_linear" x1="554.726" y1="117.945" x2="554.726" y2="141.398" gradientUnits="userSpaceOnUse">
		<stop stop-color="#9F5EF3"/>
		<stop offset="0.515625" stop-color="#C36FC6"/>
		<stop offset="1" stop-color="#FB8389"/>
	</linearGradient>
	<linearGradient id="paint3_linear" x1="587.213" y1="67.689" x2="587.213" y2="91.1416" gradientUnits="userSpaceOnUse">
		<stop stop-color="#9F5EF3"/>
		<stop offset="0.515625" stop-color="#C36FC6"/>
		<stop offset="1" stop-color="#FB8389"/>
	</linearGradient>
	<linearGradient id="paint4_linear" x1="88.9707" y1="205.486" x2="88.9707" y2="233.298" gradientUnits="userSpaceOnUse">
		<stop stop-color="#9F5EF3"/>
		<stop offset="0.515625" stop-color="#C36FC6"/>
		<stop offset="1" stop-color="#FB8389"/>
	</linearGradient>
	<clipPath id="clip0">
		<rect width="676.2" height="356" fill="white"/>
	</clipPath>
	</defs>
</svg>
